<svg xmlns="http://www.w3.org/2000/svg" xmlns:xlink="http://www.w3.org/1999/xlink" width="200" height="51" viewBox="0 0 200 51">
  <defs>
    <clipPath id="clip-brand-logo-BRANDNAME_20">
      <rect width="200" height="51"/>
    </clipPath>
  </defs>
  <g id="brand-logo-BRANDNAME_20" data-name="brand-logo-BRANDNAME – 20" clip-path="url(#clip-brand-logo-BRANDNAME_20)">
    <g id="ACUVUE" transform="translate(-37.1 -22.8)">
      <path id="Path_176" data-name="Path 176" d="M43.917,50.335c0-.521-.347-.868-1.215-.868H40.968v1.909H42.7c.694-.174,1.215-.521,1.215-1.041m.868-.174a1.654,1.654,0,0,1-.868,1.388,1.472,1.472,0,0,1,1.215,1.388c0,1.041-.868,1.735-2.256,1.735H40.1V48.6h2.6c1.215,0,2.082.521,2.082,1.562m-.521,2.776c0-.521-.521-.868-1.388-.868H40.968v1.909h1.909c.868-.174,1.388-.521,1.388-1.041" transform="translate(0 17.498)" fill="#fff"/>
      <path id="Path_177" data-name="Path 177" d="M48.329,49.468H46.594v2.256h1.735c.868,0,1.388-.347,1.388-1.215,0-.694-.347-1.041-1.388-1.041m1.562,5.206-1.562-2.256H46.768v2.256H45.9V48.6h2.6c1.388,0,2.256.694,2.256,1.909A1.712,1.712,0,0,1,49.2,52.244l1.735,2.429Z" transform="translate(4.264 17.498)" fill="#fff"/>
      <path id="Path_178" data-name="Path 178" d="M54.423,49.641l-1.215,2.776h2.429Zm3.123,5.032h-.868l-.694-1.562H52.862l-.694,1.562H51.3L54.076,48.6h.868Z" transform="translate(8.234 17.498)" fill="#fff"/>
      <path id="Path_179" data-name="Path 179" d="M62.038,48.6h.868v6.073h-.694l-3.644-4.685v4.685H57.7V48.6h.868l3.47,4.512Z" transform="translate(12.94 17.498)" fill="#fff"/>
      <path id="Path_180" data-name="Path 180" d="M65.982,49.468H64.768v4.512h1.215a2.256,2.256,0,0,0,0-4.512m0,5.206H63.9V48.6h2.082a2.872,2.872,0,0,1,3.123,2.95,3.006,3.006,0,0,1-3.123,3.123" transform="translate(17.498 17.498)" fill="#fff"/>
      <path id="Path_181" data-name="Path 181" d="M76.423,54.747A3.11,3.11,0,0,1,73.3,51.623,3.006,3.006,0,0,1,76.423,48.5a3.762,3.762,0,0,1,2.429.868l-.521.694a2.409,2.409,0,0,0-1.735-.868,2.263,2.263,0,0,0,0,4.512,2.786,2.786,0,0,0,1.909-.868l.521.521a2.711,2.711,0,0,1-2.6,1.388" transform="translate(24.409 17.425)" fill="#fff"/>
      <path id="Path_182" data-name="Path 182" d="M82.223,49.368a2.3,2.3,0,0,0-2.256,2.256,2.187,2.187,0,0,0,2.256,2.256,2.3,2.3,0,0,0,2.256-2.256,2.187,2.187,0,0,0-2.256-2.256m0,5.379a3.123,3.123,0,1,1,3.123-3.123,3.006,3.006,0,0,1-3.123,3.123" transform="translate(28.673 17.425)" fill="#fff"/>
      <path id="Path_183" data-name="Path 183" d="M90.038,48.6h.868v6.073h-.868l-3.47-4.685v4.685H85.7V48.6h.694l3.644,4.512Z" transform="translate(33.526 17.498)" fill="#fff"/>
      <path id="Path_184" data-name="Path 184" d="M94.45,54.673h-.868V49.468H91.5V48.6h4.859v.868H94.45Z" transform="translate(37.79 17.498)" fill="#fff"/>
      <path id="Path_185" data-name="Path 185" d="M99.523,49.641l-1.215,2.776h2.429Zm3.123,5.032h-.868l-.694-1.562H97.962l-.694,1.562H96.4L99.176,48.6h.868Z" transform="translate(41.393 17.498)" fill="#fff"/>
      <path id="Path_186" data-name="Path 186" d="M105.523,54.747a3.11,3.11,0,0,1-3.123-3.123,3.006,3.006,0,0,1,3.123-3.123,3.762,3.762,0,0,1,2.429.868l-.521.694a2.41,2.41,0,0,0-1.735-.868,2.263,2.263,0,0,0,0,4.512,2.786,2.786,0,0,0,1.909-.868l.521.521a3.069,3.069,0,0,1-2.6,1.388" transform="translate(45.804 17.425)" fill="#fff"/>
      <path id="Path_187" data-name="Path 187" d="M110.976,54.673h-.868V49.468H108.2V48.6h4.859v.868h-2.082Z" transform="translate(50.068 17.498)" fill="#fff"/>
      <path id="Path_188" data-name="Path 188" d="M117.5,48.6h.868v5.206h3.3v.868H117.5Z" transform="translate(56.906 17.498)" fill="#fff"/>
      <path id="Path_189" data-name="Path 189" d="M127.212,49.294h-3.644V51.2h3.3V51.9h-3.3v1.909h3.644v.868H122.7V48.6h4.512Z" transform="translate(60.729 17.498)" fill="#fff"/>
      <path id="Path_190" data-name="Path 190" d="M132.538,48.6h.868v6.073h-.694l-3.644-4.685v4.685H128.2V48.6h.868l3.47,4.512Z" transform="translate(64.772 17.498)" fill="#fff"/>
      <path id="Path_191" data-name="Path 191" d="M136.7,51.276c1.388.347,1.909.694,1.909,1.735s-.868,1.735-2.082,1.735a3.426,3.426,0,0,1-2.429-1.041l.521-.694a2.786,2.786,0,0,0,1.909.868c.694,0,1.215-.347,1.215-.868s-.347-.694-1.388-1.041c-1.388-.347-2.082-.694-2.082-1.735s.868-1.735,2.082-1.735a2.766,2.766,0,0,1,2.082.694l-.521.694a3.083,3.083,0,0,0-1.735-.694c-.694,0-1.215.347-1.215.868.173.694.521.868,1.735,1.215" transform="translate(69.11 17.425)" fill="#fff"/>
      <path id="Path_192" data-name="Path 192" d="M144.038,49.294h-3.47V51.2h3.123V51.9h-3.123v1.909h3.644v.868H139.7V48.6h4.338Z" transform="translate(73.227 17.498)" fill="#fff"/>
      <path id="Path_193" data-name="Path 193" d="M147.6,51.276c1.388.347,1.909.694,1.909,1.735s-.868,1.735-2.082,1.735A3.426,3.426,0,0,1,145,53.706l.521-.694a2.786,2.786,0,0,0,1.909.868c.694,0,1.215-.347,1.215-.868s-.347-.694-1.388-1.041c-1.388-.347-2.082-.694-2.082-1.735s.868-1.735,2.082-1.735a2.766,2.766,0,0,1,2.082.694l-.521.694a3.083,3.083,0,0,0-1.735-.694c-.694,0-1.215.347-1.215.868.174.694.521.868,1.735,1.215" transform="translate(77.124 17.425)" fill="#fff"/>
      <path id="Path_194" data-name="Path 194" d="M152.223,26.709a.373.373,0,0,1-.347.347h-.694v-.868h.694c.174.174.347.347.347.521m-.174.694c.347,0,.521-.347.521-.694,0-.521-.347-.694-.868-.694h-1.041v2.429h.347V27.4h.694l.694,1.041h.347Zm1.735-.174a2,2,0,0,1-2.082,2.082,2.152,2.152,0,0,1-2.082-2.256,2,2,0,0,1,2.082-2.082,2.264,2.264,0,0,1,2.082,2.256m.174,0a2.429,2.429,0,1,0-2.429,2.429,2.276,2.276,0,0,0,2.429-2.429" transform="translate(80.138 0)" fill="#fff"/>
      <path id="Path_195" data-name="Path 195" d="M77.167,56.407c2.95,0,6.941-.521,9.2-2.95h0v4.165a35.42,35.42,0,0,1-9.544,1.562c-9.2,0-18.22-5.379-18.22-17.005C58.6,33.5,65.541,25,76.993,25a25.386,25.386,0,0,1,8.329,1.562v3.3h-.174c-2.082-1.909-5.9-2.6-9.023-2.6-7.288,0-13.188,5.553-13.188,14.4.347,10.585,6.767,14.749,14.229,14.749" transform="translate(13.601 0.147)" fill="#fff"/>
      <path id="Path_196" data-name="Path 196" d="M139.664,55.172V41.985H153.72v-2.6H139.664V28.1h15.79V25.5H135.5V58.122h21v-2.95Z" transform="translate(70.14 0.515)" fill="#fff"/>
      <path id="Path_197" data-name="Path 197" d="M101.378,25.5V46.323c0,6.073-2.95,10.238-9.891,10.238-7.288,0-8.85-5.206-8.85-9.891V25.5H78.3V46.843c0,7.288,5.032,12.147,13.188,12.147s12.841-5.726,12.841-12.667V25.5Z" transform="translate(28.085 0.515)" fill="#fff"/>
      <path id="Path_198" data-name="Path 198" d="M123.1,25.4,112.164,53.163,100.885,25.4H96.2l13.535,32.8h3.123l13.361-32.8Z" transform="translate(41.246 0.441)" fill="#fff"/>
      <path id="Path_199" data-name="Path 199" d="M48.776,45.776l6.42-15.1,6.42,15.1ZM66.822,58.269h4.859L56.758,25.3H51.726v.174c1.562,1.041,1.562,2.429.694,4.685L40.1,58.1h3.47L47.735,48.2H62.658Z" transform="translate(0 0.368)" fill="#fff"/>
      <path id="Path_200" data-name="Path 200" d="M139.178,25.5V46.323c0,6.073-2.95,10.238-9.891,10.238-7.288,0-8.85-5.206-8.85-9.891V25.5H116.1V46.843c0,7.288,5.032,12.147,13.188,12.147s12.841-5.726,12.841-12.667V25.5Z" transform="translate(55.876 0.515)" fill="#fff"/>
    </g>
  </g>
</svg>
